<?xml version="1.0" standalone="no"?>
<!DOCTYPE svg PUBLIC "-//W3C//DTD SVG 20010904//EN"
 "http://www.w3.org/TR/2001/REC-SVG-20010904/DTD/svg10.dtd">
<svg version="1.0" xmlns="http://www.w3.org/2000/svg"
 width="1083.000000pt" height="1042.000000pt" viewBox="0 0 1083.000000 1042.000000"
 preserveAspectRatio="xMidYMid meet">

<g transform="translate(0.000000,1042.000000) scale(0.100000,-0.100000)"
fill="#000000" stroke="none">
<path d="M44 10388 c-7 -11 -1 -18 226 -228 155 -144 160 -149 166 -180 3 -14
10 -36 14 -50 38 -108 42 -282 10 -410 -6 -25 -14 -74 -17 -110 -3 -36 -9 -69
-13 -75 -12 -17 -12 -633 0 -690 37 -164 72 -270 118 -355 38 -70 111 -177
157 -229 49 -54 55 -67 65 -146 6 -51 5 -65 -12 -93 -26 -42 -58 -131 -58
-159 0 -12 -4 -24 -8 -27 -4 -2 -9 -35 -10 -72 -2 -37 -7 -76 -13 -86 -6 -11
-8 -25 -6 -32 12 -29 -15 -110 -58 -176 -156 -241 -146 -223 -117 -213 9 4 36
19 59 35 23 15 44 28 47 28 2 0 41 23 86 50 45 28 90 50 101 50 22 0 62 -23
100 -57 l26 -24 -4 -227 c-5 -270 -6 -275 -16 -283 -4 -3 -10 -19 -12 -35 -2
-16 -5 -29 -6 -29 -1 0 -3 -11 -4 -23 -1 -13 -8 -42 -15 -65 -7 -23 -14 -46
-15 -52 -5 -21 -7 -25 -16 -57 -6 -18 -12 -46 -15 -63 -3 -16 -8 -37 -11 -45
-3 -8 -8 -28 -10 -45 -3 -16 -8 -34 -12 -40 -4 -5 -9 -30 -10 -55 -1 -24 -6
-49 -10 -55 -4 -5 -9 -30 -10 -55 -2 -25 -6 -49 -11 -55 -4 -5 -8 -17 -8 -25
-3 -45 -10 -98 -16 -120 -3 -14 -8 -61 -11 -105 -3 -44 -7 -98 -9 -120 -7 -73
-23 -369 -23 -420 0 -43 -10 -160 -13 -160 -1 0 -4 -13 -6 -30 -3 -16 -9 -34
-14 -41 -5 -6 -12 -21 -14 -35 -3 -13 -5 -24 -6 -24 -1 0 -4 -15 -7 -34 -2
-19 -11 -44 -19 -56 -8 -12 -17 -40 -19 -61 -3 -21 -8 -52 -10 -69 -3 -16 -8
-50 -11 -75 -3 -25 -10 -49 -14 -55 -5 -5 -11 -30 -14 -55 -3 -25 -10 -79 -16
-120 -5 -41 -12 -95 -15 -120 -3 -25 -8 -54 -11 -65 -3 -11 -8 -36 -10 -55 -3
-19 -23 -81 -44 -137 -22 -56 -40 -106 -40 -111 0 -5 -8 -27 -17 -48 -9 -22
-18 -48 -20 -59 -2 -11 -7 -31 -13 -45 -13 -35 -66 -224 -80 -290 -7 -30 -15
-59 -19 -65 -3 -5 -7 -21 -8 -35 -2 -14 -7 -43 -13 -65 -5 -22 -14 -65 -20
-95 -12 -56 -20 -89 -40 -172 -7 -26 -8 -52 -4 -60 5 -7 10 -22 11 -33 2 -10
12 -29 23 -40 19 -21 19 -21 -60 -179 -44 -88 -80 -162 -80 -166 0 -4 88 37
196 91 209 105 214 106 248 57 9 -12 16 -34 16 -48 0 -29 -66 -160 -81 -160
-5 0 -9 -6 -9 -13 0 -7 -16 -39 -35 -71 -34 -57 -43 -86 -27 -86 4 0 12 4 17
8 6 5 30 14 55 21 25 7 54 17 65 21 54 23 144 50 162 50 12 0 23 4 25 10 2 5
15 11 31 12 15 1 27 6 27 10 0 4 10 8 23 8 13 0 27 4 32 8 6 5 44 19 85 31 41
13 83 27 92 32 12 6 37 -1 82 -22 l66 -31 0 -57 c0 -31 -4 -71 -10 -89 l-9
-34 77 4 c42 2 82 7 88 10 5 4 77 8 158 9 81 1 149 6 152 11 3 4 48 8 99 8
115 0 121 -6 111 -114 -6 -64 -10 -74 -43 -108 -21 -21 -34 -38 -30 -38 4 0
-4 -12 -18 -27 -34 -37 -32 -53 5 -50 16 1 30 5 30 9 0 3 26 9 58 12 31 2 86
10 122 16 36 6 94 15 130 20 137 19 188 28 197 33 6 4 40 7 76 9 37 1 61 6 54
10 -6 4 15 8 48 9 33 1 65 2 70 4 6 1 15 3 20 4 41 10 157 11 395 5 l185 -5
67 -71 c38 -39 68 -74 68 -79 0 -5 10 -14 23 -20 12 -7 41 -28 64 -48 23 -20
64 -53 90 -74 108 -85 127 -103 171 -171 46 -69 52 -87 72 -189 5 -27 13 -54
19 -60 5 -7 12 -25 14 -42 3 -16 9 -41 12 -55 3 -14 7 -30 9 -37 1 -7 5 -16 9
-19 4 -4 7 -15 7 -24 0 -9 6 -30 14 -46 14 -28 38 -84 40 -94 1 -3 13 -23 27
-45 14 -22 32 -51 39 -65 13 -25 94 -134 116 -157 7 -7 14 -16 16 -21 7 -17
191 -172 265 -225 69 -47 301 -185 390 -231 27 -13 34 -14 45 -2 16 15 78 27
78 14 0 -4 8 -8 17 -8 9 0 24 -7 32 -15 26 -23 219 -119 311 -154 87 -34 109
-43 158 -62 15 -7 37 -16 50 -20 40 -16 66 -26 95 -38 20 -8 34 -8 55 0 15 7
36 15 47 19 11 4 32 12 48 19 15 6 39 16 55 22 15 7 36 15 47 19 11 5 58 23
105 41 85 32 281 130 310 153 48 39 120 45 120 11 0 -26 25 -17 150 55 67 39
123 70 125 70 2 0 34 19 72 43 283 175 512 432 589 659 4 10 9 18 13 18 4 0 8
12 9 26 1 14 5 31 9 37 4 7 9 23 11 37 1 14 5 32 9 40 3 8 8 38 10 65 2 28 8
63 13 79 6 16 10 44 10 62 0 24 8 39 29 56 16 13 38 42 50 65 22 44 41 62 261
238 35 28 67 55 71 60 5 6 31 38 59 73 28 34 61 69 73 76 18 12 80 16 315 18
160 2 292 0 292 -4 0 -4 8 -7 18 -8 53 -2 78 -6 88 -12 5 -4 40 -8 77 -9 37
-1 67 -5 67 -9 0 -4 28 -8 62 -9 33 -1 66 -5 72 -9 10 -6 58 -13 191 -28 28
-4 55 -9 60 -13 6 -5 37 -9 70 -10 33 -2 62 -6 65 -9 9 -12 60 -11 60 1 0 7
-11 24 -24 39 -14 14 -23 28 -21 30 3 3 -9 17 -25 33 -17 16 -30 23 -30 17 0
-24 -19 -10 -118 89 -97 95 -115 119 -92 119 6 0 10 7 10 15 0 20 103 21 122
2 9 -10 32 -12 85 -9 78 5 80 4 74 -52 -1 -18 0 -18 16 -4 10 8 43 19 73 23
63 8 320 6 334 -2 14 -9 156 -16 156 -8 0 4 -15 33 -34 64 -19 32 -37 68 -41
80 -3 11 -11 21 -16 21 -5 0 -9 6 -9 14 0 8 -7 22 -16 31 -12 11 -14 25 -10
50 5 27 12 35 38 40 16 4 40 2 52 -3 11 -6 50 -20 86 -32 36 -12 74 -25 85
-29 11 -5 38 -14 60 -20 61 -19 115 -43 115 -53 0 -4 14 -8 30 -8 17 0 30 -4
30 -8 0 -4 8 -8 19 -9 22 -2 319 -99 343 -113 10 -6 20 -10 23 -10 8 0 6 48
-3 52 -12 5 -115 180 -115 195 0 7 -4 13 -9 13 -4 0 -8 7 -8 15 0 8 -4 15 -9
15 -18 0 -22 39 -6 69 8 17 26 38 39 46 22 15 32 11 215 -81 106 -53 194 -94
197 -91 3 3 -33 80 -80 172 -93 182 -93 184 -38 232 23 21 24 25 13 68 -6 25
-15 64 -20 88 -18 82 -30 132 -40 177 -6 25 -12 56 -14 70 -2 14 -7 32 -10 40
-3 8 -13 44 -21 80 -9 36 -25 95 -35 133 -11 37 -20 69 -21 72 -1 7 -10 35
-21 65 -5 14 -10 36 -13 50 -2 14 -9 39 -16 55 -13 33 -21 63 -22 83 -1 6 -6
12 -11 12 -6 0 -8 3 -4 6 3 4 0 19 -8 34 -8 15 -16 40 -19 55 -3 14 -10 33
-16 40 -7 8 -14 27 -16 42 -7 43 -10 57 -17 73 -3 8 -9 40 -11 70 -3 30 -10
78 -15 105 -5 28 -7 53 -4 57 2 4 0 16 -6 25 -5 10 -10 36 -12 58 -1 22 -6 45
-10 50 -4 6 -9 35 -12 65 -8 89 -19 140 -29 140 -5 0 -7 4 -4 9 4 5 1 22 -5
38 -6 15 -13 42 -16 58 -6 40 -24 97 -34 111 -5 6 -11 21 -13 35 -3 13 -5 26
-6 29 -1 3 -1 16 0 28 1 13 -3 36 -8 50 -9 22 -23 288 -26 487 -1 28 -4 55 -8
60 -3 6 -7 46 -9 90 -1 44 -6 85 -10 90 -3 6 -9 35 -13 65 -5 52 -16 118 -34
223 -5 26 -7 47 -4 47 2 0 0 6 -6 13 -5 6 -11 28 -13 47 -2 19 -7 40 -11 46
-5 7 -9 28 -10 48 -1 20 -5 39 -10 42 -4 3 -8 16 -8 30 0 13 -4 32 -9 42 -5 9
-17 44 -26 77 -9 33 -23 78 -30 100 -10 27 -16 103 -19 230 -2 105 -6 197 -10
205 -11 30 10 78 55 128 42 46 99 76 99 51 0 -5 3 -8 8 -7 14 3 42 -14 36 -23
-3 -5 2 -6 10 -3 9 3 16 1 16 -5 0 -6 8 -11 18 -11 9 0 28 -9 42 -20 14 -11
28 -20 32 -20 4 0 26 -13 50 -28 54 -36 82 -47 75 -29 -2 7 -41 69 -86 137
-45 69 -82 130 -82 135 -1 6 -5 15 -11 22 -5 7 -10 46 -10 88 1 44 -3 73 -9
70 -9 -6 -14 44 -10 109 2 25 -1 36 -8 31 -7 -3 -11 2 -11 15 0 12 -5 30 -10
40 -6 10 -11 30 -12 44 -1 15 -6 26 -10 26 -4 0 -5 7 -2 15 4 8 -1 17 -10 21
-9 3 -16 12 -16 20 0 8 -4 14 -8 14 -4 0 -5 27 -2 60 4 44 12 65 28 80 20 19
27 34 20 43 -2 2 15 25 38 53 108 131 186 284 232 459 31 118 33 155 28 470
-5 306 -11 400 -37 510 -24 108 -27 132 -23 205 4 71 17 144 34 200 5 14 11
37 14 51 3 15 29 49 58 77 100 94 223 210 261 244 65 60 43 94 -39 57 -27 -12
-65 -28 -84 -36 -19 -8 -48 -21 -64 -29 -16 -8 -33 -14 -37 -14 -5 0 -34 -12
-66 -26 -32 -14 -74 -33 -93 -41 -19 -9 -48 -21 -65 -28 -16 -8 -55 -23 -85
-35 -30 -12 -78 -32 -108 -46 -29 -13 -58 -24 -65 -24 -7 0 -17 -4 -23 -8 -5
-5 -29 -14 -54 -21 -25 -7 -67 -22 -94 -32 -27 -10 -57 -19 -67 -19 -11 0 -19
-4 -19 -10 0 -5 -4 -10 -10 -10 -11 0 -105 -45 -164 -79 -67 -39 -181 -118
-260 -182 -47 -37 -87 -62 -101 -61 -14 0 -22 -4 -19 -9 4 -7 -51 -14 -78 -10
-5 0 -8 -3 -8 -9 0 -5 -14 -10 -30 -10 -17 0 -38 -4 -48 -9 -9 -5 -37 -14 -62
-21 -25 -7 -53 -16 -62 -21 -10 -5 -23 -9 -28 -9 -13 0 -57 -21 -182 -89 -102
-54 -272 -128 -311 -133 -12 -2 -24 -6 -27 -10 -3 -4 -20 -8 -38 -10 -18 -1
-32 -6 -32 -11 0 -5 -7 -6 -16 -3 -8 3 -36 1 -61 -4 -53 -12 -59 -9 -103 58
-34 51 -37 62 -15 62 8 0 15 3 15 8 0 9 -39 25 -102 43 -27 7 -48 16 -48 19 0
3 -12 7 -27 8 -16 1 -29 7 -31 12 -2 6 -13 10 -25 10 -19 0 -58 11 -112 30
-51 18 -93 30 -108 30 -9 0 -17 3 -17 8 0 4 -28 9 -61 10 -34 2 -72 10 -85 19
-13 8 -33 13 -45 10 -12 -3 -22 0 -26 9 -3 8 -12 14 -19 14 -8 0 -17 7 -20 15
-4 10 -20 15 -46 15 -21 0 -37 4 -34 8 3 5 -11 9 -30 10 -20 1 -51 6 -70 12
-19 5 -49 15 -67 20 -18 6 -43 10 -55 10 -11 0 -23 4 -26 9 -6 8 -31 14 -133
27 -24 3 -43 10 -43 15 0 4 -126 8 -280 8 -170 0 -278 -4 -275 -10 4 -5 -17
-9 -49 -9 -47 0 -61 5 -103 37 -59 45 -65 52 -58 81 4 17 1 22 -15 22 -11 0
-28 -4 -38 -9 -9 -5 -51 -19 -92 -31 -41 -12 -85 -26 -98 -31 -13 -5 -34 -9
-47 -9 -14 0 -25 -4 -25 -10 0 -5 -11 -10 -25 -10 -13 0 -39 -8 -57 -18 -38
-21 -119 -48 -131 -44 -5 1 -6 -2 -2 -8 3 -5 0 -10 -8 -10 -8 0 -27 -7 -43
-14 -15 -8 -31 -13 -36 -10 -4 3 -8 0 -8 -5 0 -7 -30 -11 -80 -11 -50 0 -80 4
-80 11 0 5 -4 8 -8 5 -4 -2 -21 1 -37 9 -94 41 -124 54 -160 66 -22 7 -44 17
-50 21 -5 4 -19 8 -32 8 -13 0 -23 5 -23 10 0 6 -10 10 -22 10 -20 0 -63 11
-113 30 -11 4 -40 13 -65 20 -25 6 -53 16 -62 21 -10 5 -27 9 -38 9 -16 0 -19
-5 -13 -30 4 -24 0 -37 -17 -55 -13 -14 -31 -25 -39 -25 -9 0 -25 -7 -35 -15
-22 -17 -131 -21 -121 -5 4 6 -96 9 -275 9 -154 0 -280 -4 -280 -8 0 -5 -19
-12 -42 -15 -103 -13 -128 -19 -134 -27 -3 -5 -15 -9 -26 -9 -12 0 -37 -4 -55
-10 -18 -5 -48 -15 -67 -20 -19 -6 -50 -11 -70 -12 -19 -1 -33 -5 -30 -10 4
-7 -43 -13 -68 -9 -5 0 -8 -4 -8 -9 0 -6 -12 -15 -26 -20 -14 -6 -23 -14 -20
-18 3 -5 -10 -9 -29 -10 -20 -1 -43 -6 -53 -11 -10 -5 -44 -11 -75 -13 -31 -1
-57 -6 -57 -10 0 -5 -8 -8 -17 -8 -15 0 -57 -12 -108 -30 -54 -19 -93 -30
-112 -30 -12 0 -23 -4 -25 -10 -1 -5 -15 -11 -30 -12 -16 -1 -28 -6 -28 -10 0
-4 -9 -8 -19 -8 -11 0 -23 -4 -26 -10 -3 -5 -17 -10 -31 -10 -25 0 -64 -18
-76 -35 -4 -5 -8 -23 -8 -38 0 -17 -7 -30 -17 -34 -10 -3 -29 -14 -43 -24 -21
-14 -82 -26 -100 -19 -3 1 -21 4 -40 7 -19 2 -37 8 -40 11 -3 4 -15 8 -27 10
-56 8 -282 112 -436 200 -21 12 -44 22 -52 22 -9 0 -23 4 -33 9 -34 17 -150
51 -176 51 -14 0 -26 4 -26 8 0 4 -17 9 -37 10 -21 2 -40 6 -43 10 -3 5 -15 9
-27 9 -12 1 -56 29 -99 63 -126 101 -270 193 -374 240 -30 14 -56 28 -58 33
-2 4 -15 7 -28 7 -13 0 -24 5 -24 10 0 6 -11 10 -25 10 -14 0 -33 4 -43 9 -9
5 -35 14 -57 20 -41 12 -52 17 -115 44 -19 8 -66 28 -105 43 -38 15 -73 32
-77 38 -4 6 -8 8 -8 4 0 -5 -83 27 -187 72 -13 6 -33 14 -45 19 -13 5 -38 15
-55 23 -18 7 -33 16 -33 20 0 5 -9 8 -20 8 -11 0 -28 4 -38 9 -9 5 -28 13 -42
18 -14 6 -45 20 -68 32 -50 24 -58 25 -68 9z m3468 -3905 c22 -20 24 -66 2
-87 -18 -19 -77 -21 -92 -3 -37 46 -14 107 40 107 17 0 40 -7 50 -17z m3521
-74 c28 -15 37 -28 37 -58 0 -76 -108 -83 -125 -9 -5 21 -1 33 19 52 28 29 38
31 69 15z m-3518 -143 c28 -19 31 -43 13 -112 -12 -44 -11 -47 11 -65 49 -40
96 -17 107 52 4 22 16 51 27 65 18 23 26 26 67 22 27 -3 84 -23 134 -47 l87
-42 -21 -29 c-32 -45 -72 -69 -146 -87 -58 -14 -78 -15 -152 -4 -169 24 -291
117 -317 240 l-7 34 86 -5 c55 -4 95 -12 111 -22z m4000 -8 c-26 -123 -147
-215 -316 -239 -132 -18 -239 13 -295 87 l-24 31 86 43 c52 26 105 45 133 48
43 4 50 1 69 -23 12 -15 22 -37 22 -49 0 -11 9 -36 20 -53 23 -38 55 -43 91
-14 22 18 23 21 11 65 -29 109 -4 131 146 135 l64 1 -7 -32z m-2440 -2265 c82
-31 188 -44 351 -42 166 1 271 15 340 44 22 10 67 18 105 18 102 2 157 -41
175 -137 l7 -39 -39 24 c-52 32 -161 32 -249 1 -37 -12 -102 -24 -164 -28 -60
-4 -104 -12 -106 -18 -2 -6 -6 -60 -10 -121 -6 -127 -32 -311 -46 -337 -34
-63 -62 44 -83 315 l-11 152 -95 7 c-52 4 -131 18 -175 30 -100 29 -187 29
-244 1 -36 -18 -41 -19 -41 -4 1 27 27 91 46 112 41 46 150 56 239 22z"/>
<path d="M9675 2410 c3 -5 8 -10 11 -10 2 0 4 5 4 10 0 6 -5 10 -11 10 -5 0
-7 -4 -4 -10z"/>
</g>
</svg>
