<?xml version="1.0" standalone="no"?>
<!DOCTYPE svg PUBLIC "-//W3C//DTD SVG 20010904//EN"
 "http://www.w3.org/TR/2001/REC-SVG-20010904/DTD/svg10.dtd">
<svg version="1.0" xmlns="http://www.w3.org/2000/svg"
 width="883.000000pt" height="963.000000pt" viewBox="0 0 883.000000 963.000000"
 preserveAspectRatio="xMidYMid meet">

<g transform="translate(0.000000,963.000000) scale(0.100000,-0.100000)"
fill="#000000" stroke="none">
<path d="M4529 9612 c-9 -9 -49 -46 -89 -82 -40 -36 -85 -76 -100 -90 -15 -14
-59 -54 -99 -90 -40 -36 -92 -83 -116 -105 -23 -22 -62 -58 -87 -80 -105 -94
-213 -192 -247 -224 -20 -18 -69 -63 -110 -100 -41 -36 -92 -83 -114 -104 -23
-21 -75 -68 -116 -105 -90 -81 -94 -85 -212 -192 -51 -47 -105 -96 -119 -110
-15 -14 -60 -54 -100 -90 -40 -36 -85 -76 -100 -90 -15 -14 -59 -54 -99 -90
-39 -36 -95 -87 -124 -113 -29 -27 -74 -67 -100 -90 -27 -23 -71 -63 -99 -89
-59 -57 -81 -42 192 -128 107 -34 213 -68 235 -76 22 -7 141 -45 265 -85 356
-113 501 -159 560 -178 150 -49 230 -75 395 -126 99 -31 225 -72 280 -90 55
-18 174 -56 265 -85 91 -29 233 -74 315 -101 213 -68 197 -65 191 -37 -8 37
-23 107 -39 183 -9 39 -18 82 -21 95 -2 14 -14 66 -25 115 -21 89 -48 216 -57
266 -3 14 -13 61 -24 105 -10 43 -16 81 -14 83 4 4 47 -3 194 -34 70 -15 99
-23 270 -76 105 -33 310 -115 409 -164 50 -25 94 -45 97 -45 6 0 179 -100 239
-138 97 -62 121 -78 133 -90 8 -6 23 -17 35 -24 20 -10 144 -104 157 -118 3
-3 27 -24 55 -45 115 -93 291 -267 395 -394 19 -23 44 -53 55 -66 36 -44 102
-131 143 -192 91 -133 143 -216 184 -293 24 -47 52 -98 61 -115 9 -16 22 -43
30 -60 7 -16 18 -39 24 -50 10 -20 28 -62 53 -120 7 -16 18 -43 25 -60 8 -16
23 -59 35 -95 12 -36 26 -74 31 -85 14 -33 77 -264 98 -360 22 -99 57 -341 66
-450 7 -90 7 -414 -1 -513 -30 -414 -157 -878 -341 -1246 -76 -152 -197 -362
-247 -428 -12 -15 -39 -52 -61 -83 -109 -154 -298 -363 -456 -506 -100 -90
-236 -199 -249 -199 -5 0 -10 -3 -10 -7 0 -5 -17 -19 -38 -33 -20 -13 -55 -39
-77 -56 -22 -17 -47 -33 -55 -36 -14 -5 -124 -70 -240 -141 -30 -18 -71 -40
-90 -47 -19 -7 -42 -19 -51 -27 -8 -7 -19 -13 -24 -13 -4 0 -29 -10 -54 -21
-25 -12 -59 -27 -76 -34 -62 -26 -91 -38 -110 -45 -11 -4 -38 -15 -60 -23 -22
-9 -51 -19 -65 -22 -14 -3 -34 -10 -45 -15 -37 -16 -188 -57 -325 -86 -14 -3
-34 -8 -45 -10 -49 -12 -265 -44 -339 -51 -103 -10 -534 -10 -646 0 -160 14
-352 48 -520 91 -360 94 -613 201 -969 411 -160 94 -411 295 -582 465 -150
149 -356 396 -424 508 -5 9 -35 54 -66 102 -31 47 -75 121 -98 165 -23 44 -46
87 -51 95 -6 8 -17 31 -25 50 -9 19 -20 42 -25 50 -17 28 -110 256 -110 272 0
8 -3 17 -6 21 -13 13 -94 265 -108 337 -2 14 -16 77 -29 140 -46 208 -60 348
-64 635 -2 148 -5 270 -6 271 -2 3 -217 19 -372 29 -49 3 -112 8 -140 10 -27
3 -95 8 -150 11 -55 4 -140 10 -190 14 -50 4 -93 4 -97 1 -15 -13 -20 -379 -9
-556 11 -154 31 -350 45 -420 2 -11 7 -40 11 -65 4 -25 9 -52 11 -60 1 -8 12
-60 23 -115 11 -55 32 -139 46 -186 13 -48 27 -97 29 -110 3 -13 5 -24 6 -24
1 0 3 -7 5 -15 13 -59 121 -356 160 -445 8 -16 26 -57 41 -90 61 -138 149
-307 210 -405 36 -58 72 -118 79 -135 7 -16 36 -61 64 -100 28 -38 74 -103
103 -143 53 -73 160 -211 208 -266 120 -141 384 -402 495 -491 28 -22 52 -43
55 -46 14 -16 265 -202 330 -244 41 -26 98 -63 125 -81 82 -53 220 -129 380
-208 524 -258 1045 -397 1665 -445 112 -9 560 -7 610 3 14 2 57 7 95 11 80 7
84 8 261 34 72 11 183 32 245 46 63 15 123 28 134 31 11 2 74 20 140 39 66 20
125 37 130 38 6 1 15 5 20 9 6 3 26 9 45 13 19 4 40 11 45 15 6 4 35 15 65 24
30 10 78 29 106 42 28 13 54 24 58 24 3 0 37 14 74 31 37 17 92 43 122 56 30
14 62 29 70 34 8 5 49 26 90 45 88 42 272 151 334 199 24 18 54 38 67 45 29
15 98 64 144 103 18 15 35 27 39 27 6 0 165 127 190 153 7 6 37 32 67 57 68
57 307 296 376 375 28 33 68 79 89 103 139 161 351 473 472 697 67 123 201
407 232 490 4 11 13 34 20 50 7 17 34 98 62 180 91 279 163 594 188 819 6 50
13 115 16 144 32 291 26 719 -15 992 -6 36 -13 87 -17 115 -12 91 -63 328 -95
442 -12 43 -22 83 -24 88 -1 6 -5 17 -8 25 -3 8 -20 62 -37 120 -18 58 -40
124 -51 147 -10 24 -19 47 -19 53 0 6 -5 20 -12 33 -23 45 -28 57 -28 67 0 6
-13 37 -28 68 -16 32 -32 70 -36 85 -3 15 -11 27 -16 27 -6 0 -10 6 -10 13 0
20 -106 224 -175 337 -36 58 -74 124 -85 147 -11 23 -38 64 -60 92 -22 28 -40
54 -40 59 0 5 -16 27 -35 49 -19 23 -35 44 -35 49 0 4 -20 31 -45 60 -25 28
-45 57 -45 63 0 6 -4 11 -9 11 -4 0 -30 28 -57 63 -48 61 -64 80 -203 227 -39
41 -71 78 -71 83 0 4 -4 7 -10 7 -5 0 -29 19 -52 43 -222 224 -598 501 -908
670 -108 59 -352 177 -365 177 -2 0 -28 11 -57 23 -29 13 -69 30 -88 37 -19 7
-48 19 -65 26 -61 25 -284 95 -415 129 -168 44 -409 90 -589 112 -75 9 -141
21 -148 26 -7 5 -17 34 -23 65 -6 31 -17 84 -25 117 -8 33 -16 71 -19 85 -2
14 -17 79 -31 145 -15 66 -31 138 -36 160 -5 22 -11 51 -14 65 -9 42 -22 101
-40 188 -17 78 -19 82 -44 81 -14 0 -33 -8 -42 -17z"/>
</g>
</svg>
